<svg width="400" height="360" xmlns="http://www.w3.org/2000/svg" shape-rendering="crispEdges">
  <defs>
    <pattern id="grid" width="4" height="4" patternUnits="userSpaceOnUse">
      <rect width="4" height="4" fill="#0d1117"/>
      <rect width="1" height="1" fill="#161b22" opacity="0.5"/>
    </pattern>
  </defs>

  <!-- Background -->
  <rect width="400" height="360" fill="#0d1117"/>
  <rect width="400" height="360" fill="url(#grid)"/>

  <!-- Outer border pixel style - más fino -->
  <rect x="0" y="0" width="400" height="2" fill="#FFA500"/>
  <rect x="0" y="358" width="400" height="2" fill="#FFA500"/>
  <rect x="0" y="0" width="2" height="360" fill="#FFA500"/>
  <rect x="398" y="0" width="2" height="360" fill="#FFA500"/>

  <!-- Inner border - más fino -->
  <rect x="2" y="2" width="396" height="2" fill="#FF8C00"/>
  <rect x="2" y="356" width="396" height="2" fill="#FF8C00"/>
  <rect x="2" y="2" width="2" height="356" fill="#FF8C00"/>
  <rect x="396" y="2" width="2" height="356" fill="#FF8C00"/>

  <!-- Corner pixels decoration - morado -->
  <rect x="6" y="6" width="4" height="4" fill="#5B2D8E"/>
  <rect x="390" y="6" width="4" height="4" fill="#5B2D8E"/>
  <rect x="6" y="350" width="4" height="4" fill="#5B2D8E"/>
  <rect x="390" y="350" width="4" height="4" fill="#5B2D8E"/>

  <!-- Title bar -->
  <rect x="6" y="14" width="388" height="20" fill="#161b22"/>
  <rect x="6" y="14" width="388" height="2" fill="#FFA500" opacity="0.5"/>
  <rect x="6" y="32" width="388" height="2" fill="#FFA500" opacity="0.5"/>

  <!-- Title -->
  <text x="200" y="28" font-family="'Courier New', monospace" font-size="11" fill="#FFA500" text-anchor="middle" font-weight="bold" letter-spacing="3">[ STATS ]</text>

  <!-- Separator -->
  <rect x="6" y="36" width="388" height="2" fill="#FFA500" opacity="0.3"/>

  <!-- Skill 1: Manejo del estrés 90% -->
  <text x="14" y="56" font-family="'Courier New', monospace" font-size="9" fill="#FFA500" font-weight="bold">▶</text>
  <text x="26" y="56" font-family="'Courier New', monospace" font-size="9" fill="#ffffff" opacity="0.9">MANEJO DEL ESTRES</text>
  <text x="386" y="56" font-family="'Courier New', monospace" font-size="9" fill="#6B21A8" text-anchor="end">90%</text>
  <rect x="14" y="60" width="372" height="8" fill="#161b22"/>
  <rect x="14" y="60" width="372" height="8" fill="none" stroke="#FFA500" stroke-width="1" opacity="0.3"/>
  <rect x="15" y="61" width="333" height="6" fill="#FFA500" opacity="0.9"/>
  <rect x="52" y="61" width="2" height="6" fill="#0d1117" opacity="0.4"/>
  <rect x="89" y="61" width="2" height="6" fill="#0d1117" opacity="0.4"/>
  <rect x="126" y="61" width="2" height="6" fill="#0d1117" opacity="0.4"/>
  <rect x="163" y="61" width="2" height="6" fill="#0d1117" opacity="0.4"/>
  <rect x="200" y="61" width="2" height="6" fill="#0d1117" opacity="0.4"/>
  <rect x="237" y="61" width="2" height="6" fill="#0d1117" opacity="0.4"/>
  <rect x="274" y="61" width="2" height="6" fill="#0d1117" opacity="0.4"/>
  <rect x="311" y="61" width="2" height="6" fill="#0d1117" opacity="0.4"/>

  <!-- Skill 2: Concentración 100% -->
  <text x="14" y="86" font-family="'Courier New', monospace" font-size="9" fill="#FF8C00" font-weight="bold">▶</text>
  <text x="26" y="86" font-family="'Courier New', monospace" font-size="9" fill="#ffffff" opacity="0.9">CONCENTRACION</text>
  <text x="386" y="86" font-family="'Courier New', monospace" font-size="9" fill="#7E22CE" text-anchor="end">100%</text>
  <rect x="14" y="90" width="372" height="8" fill="#161b22"/>
  <rect x="14" y="90" width="372" height="8" fill="none" stroke="#FF8C00" stroke-width="1" opacity="0.3"/>
  <rect x="15" y="91" width="370" height="6" fill="#FF8C00" opacity="0.9"/>
  <rect x="52" y="91" width="2" height="6" fill="#0d1117" opacity="0.4"/>
  <rect x="89" y="91" width="2" height="6" fill="#0d1117" opacity="0.4"/>
  <rect x="126" y="91" width="2" height="6" fill="#0d1117" opacity="0.4"/>
  <rect x="163" y="91" width="2" height="6" fill="#0d1117" opacity="0.4"/>
  <rect x="200" y="91" width="2" height="6" fill="#0d1117" opacity="0.4"/>
  <rect x="237" y="91" width="2" height="6" fill="#0d1117" opacity="0.4"/>
  <rect x="274" y="91" width="2" height="6" fill="#0d1117" opacity="0.4"/>
  <rect x="311" y="91" width="2" height="6" fill="#0d1117" opacity="0.4"/>
  <rect x="348" y="91" width="2" height="6" fill="#0d1117" opacity="0.4"/>

  <!-- Skill 3: Trabajo en equipo 85% -->
  <text x="14" y="116" font-family="'Courier New', monospace" font-size="9" fill="#FFA500" font-weight="bold">▶</text>
  <text x="26" y="116" font-family="'Courier New', monospace" font-size="9" fill="#ffffff" opacity="0.9">TRABAJO EN EQUIPO</text>
  <text x="386" y="116" font-family="'Courier New', monospace" font-size="9" fill="#6B21A8" text-anchor="end">85%</text>
  <rect x="14" y="120" width="372" height="8" fill="#161b22"/>
  <rect x="14" y="120" width="372" height="8" fill="none" stroke="#FFA500" stroke-width="1" opacity="0.3"/>
  <rect x="15" y="121" width="315" height="6" fill="#FFA500" opacity="0.9"/>
  <rect x="52" y="121" width="2" height="6" fill="#0d1117" opacity="0.4"/>
  <rect x="89" y="121" width="2" height="6" fill="#0d1117" opacity="0.4"/>
  <rect x="126" y="121" width="2" height="6" fill="#0d1117" opacity="0.4"/>
  <rect x="163" y="121" width="2" height="6" fill="#0d1117" opacity="0.4"/>
  <rect x="200" y="121" width="2" height="6" fill="#0d1117" opacity="0.4"/>
  <rect x="237" y="121" width="2" height="6" fill="#0d1117" opacity="0.4"/>
  <rect x="274" y="121" width="2" height="6" fill="#0d1117" opacity="0.4"/>

  <!-- Skill 4: Trabajo en solitario 90% -->
  <text x="14" y="146" font-family="'Courier New', monospace" font-size="9" fill="#FF8C00" font-weight="bold">▶</text>
  <text x="26" y="146" font-family="'Courier New', monospace" font-size="9" fill="#ffffff" opacity="0.9">TRABAJO EN SOLITARIO</text>
  <text x="386" y="146" font-family="'Courier New', monospace" font-size="9" fill="#7E22CE" text-anchor="end">90%</text>
  <rect x="14" y="150" width="372" height="8" fill="#161b22"/>
  <rect x="14" y="150" width="372" height="8" fill="none" stroke="#FF8C00" stroke-width="1" opacity="0.3"/>
  <rect x="15" y="151" width="333" height="6" fill="#FF8C00" opacity="0.9"/>
  <rect x="52" y="151" width="2" height="6" fill="#0d1117" opacity="0.4"/>
  <rect x="89" y="151" width="2" height="6" fill="#0d1117" opacity="0.4"/>
  <rect x="126" y="151" width="2" height="6" fill="#0d1117" opacity="0.4"/>
  <rect x="163" y="151" width="2" height="6" fill="#0d1117" opacity="0.4"/>
  <rect x="200" y="151" width="2" height="6" fill="#0d1117" opacity="0.4"/>
  <rect x="237" y="151" width="2" height="6" fill="#0d1117" opacity="0.4"/>
  <rect x="274" y="151" width="2" height="6" fill="#0d1117" opacity="0.4"/>
  <rect x="311" y="151" width="2" height="6" fill="#0d1117" opacity="0.4"/>

  <!-- Skill 5: Adaptabilidad 95% -->
  <text x="14" y="176" font-family="'Courier New', monospace" font-size="9" fill="#FFA500" font-weight="bold">▶</text>
  <text x="26" y="176" font-family="'Courier New', monospace" font-size="9" fill="#ffffff" opacity="0.9">ADAPTABILIDAD</text>
  <text x="386" y="176" font-family="'Courier New', monospace" font-size="9" fill="#6B21A8" text-anchor="end">95%</text>
  <rect x="14" y="180" width="372" height="8" fill="#161b22"/>
  <rect x="14" y="180" width="372" height="8" fill="none" stroke="#FFA500" stroke-width="1" opacity="0.3"/>
  <rect x="15" y="181" width="352" height="6" fill="#FFA500" opacity="0.9"/>
  <rect x="52" y="181" width="2" height="6" fill="#0d1117" opacity="0.4"/>
  <rect x="89" y="181" width="2" height="6" fill="#0d1117" opacity="0.4"/>
  <rect x="126" y="181" width="2" height="6" fill="#0d1117" opacity="0.4"/>
  <rect x="163" y="181" width="2" height="6" fill="#0d1117" opacity="0.4"/>
  <rect x="200" y="181" width="2" height="6" fill="#0d1117" opacity="0.4"/>
  <rect x="237" y="181" width="2" height="6" fill="#0d1117" opacity="0.4"/>
  <rect x="274" y="181" width="2" height="6" fill="#0d1117" opacity="0.4"/>
  <rect x="311" y="181" width="2" height="6" fill="#0d1117" opacity="0.4"/>

  <!-- Skill 6: Comunicación 80% -->
  <text x="14" y="206" font-family="'Courier New', monospace" font-size="9" fill="#FF8C00" font-weight="bold">▶</text>
  <text x="26" y="206" font-family="'Courier New', monospace" font-size="9" fill="#ffffff" opacity="0.9">COMUNICACION</text>
  <text x="386" y="206" font-family="'Courier New', monospace" font-size="9" fill="#7E22CE" text-anchor="end">80%</text>
  <rect x="14" y="210" width="372" height="8" fill="#161b22"/>
  <rect x="14" y="210" width="372" height="8" fill="none" stroke="#FF8C00" stroke-width="1" opacity="0.3"/>
  <rect x="15" y="211" width="296" height="6" fill="#FF8C00" opacity="0.9"/>
  <rect x="52" y="211" width="2" height="6" fill="#0d1117" opacity="0.4"/>
  <rect x="89" y="211" width="2" height="6" fill="#0d1117" opacity="0.4"/>
  <rect x="126" y="211" width="2" height="6" fill="#0d1117" opacity="0.4"/>
  <rect x="163" y="211" width="2" height="6" fill="#0d1117" opacity="0.4"/>
  <rect x="200" y="211" width="2" height="6" fill="#0d1117" opacity="0.4"/>
  <rect x="237" y="211" width="2" height="6" fill="#0d1117" opacity="0.4"/>
  <rect x="274" y="211" width="2" height="6" fill="#0d1117" opacity="0.4"/>

  <!-- Skill 7: Gestión del tiempo 85% -->
  <text x="14" y="236" font-family="'Courier New', monospace" font-size="9" fill="#FFA500" font-weight="bold">▶</text>
  <text x="26" y="236" font-family="'Courier New', monospace" font-size="9" fill="#ffffff" opacity="0.9">GESTION DEL TIEMPO</text>
  <text x="386" y="236" font-family="'Courier New', monospace" font-size="9" fill="#6B21A8" text-anchor="end">85%</text>
  <rect x="14" y="240" width="372" height="8" fill="#161b22"/>
  <rect x="14" y="240" width="372" height="8" fill="none" stroke="#FFA500" stroke-width="1" opacity="0.3"/>
  <rect x="15" y="241" width="315" height="6" fill="#FFA500" opacity="0.9"/>
  <rect x="52" y="241" width="2" height="6" fill="#0d1117" opacity="0.4"/>
  <rect x="89" y="241" width="2" height="6" fill="#0d1117" opacity="0.4"/>
  <rect x="126" y="241" width="2" height="6" fill="#0d1117" opacity="0.4"/>
  <rect x="163" y="241" width="2" height="6" fill="#0d1117" opacity="0.4"/>
  <rect x="200" y="241" width="2" height="6" fill="#0d1117" opacity="0.4"/>
  <rect x="237" y="241" width="2" height="6" fill="#0d1117" opacity="0.4"/>
  <rect x="274" y="241" width="2" height="6" fill="#0d1117" opacity="0.4"/>

  <!-- Skill 8: Resolución de problemas 100% -->
  <text x="14" y="266" font-family="'Courier New', monospace" font-size="9" fill="#FF8C00" font-weight="bold">▶</text>
  <text x="26" y="266" font-family="'Courier New', monospace" font-size="9" fill="#ffffff" opacity="0.9">RESOLUCION DE PROBLEMAS</text>
  <text x="386" y="266" font-family="'Courier New', monospace" font-size="9" fill="#7E22CE" text-anchor="end">100%</text>
  <rect x="14" y="270" width="372" height="8" fill="#161b22"/>
  <rect x="14" y="270" width="372" height="8" fill="none" stroke="#FF8C00" stroke-width="1" opacity="0.3"/>
  <rect x="15" y="271" width="370" height="6" fill="#FF8C00" opacity="0.9"/>
  <rect x="52" y="271" width="2" height="6" fill="#0d1117" opacity="0.4"/>
  <rect x="89" y="271" width="2" height="6" fill="#0d1117" opacity="0.4"/>
  <rect x="126" y="271" width="2" height="6" fill="#0d1117" opacity="0.4"/>
  <rect x="163" y="271" width="2" height="6" fill="#0d1117" opacity="0.4"/>
  <rect x="200" y="271" width="2" height="6" fill="#0d1117" opacity="0.4"/>
  <rect x="237" y="271" width="2" height="6" fill="#0d1117" opacity="0.4"/>
  <rect x="274" y="271" width="2" height="6" fill="#0d1117" opacity="0.4"/>
  <rect x="311" y="271" width="2" height="6" fill="#0d1117" opacity="0.4"/>
  <rect x="348" y="271" width="2" height="6" fill="#0d1117" opacity="0.4"/>

  <!-- Footer separator -->
  <rect x="6" y="288" width="388" height="2" fill="#FFA500" opacity="0.3"/>

  <!-- Pixel decoration bottom - morado -->
  <rect x="14" y="296" width="4" height="4" fill="#5B2D8E" opacity="0.9"/>
  <rect x="22" y="296" width="4" height="4" fill="#6B21A8" opacity="0.7"/>
  <rect x="30" y="296" width="4" height="4" fill="#7E22CE" opacity="0.5"/>
  <rect x="38" y="296" width="4" height="4" fill="#5B2D8E" opacity="0.3"/>

  <rect x="358" y="296" width="4" height="4" fill="#5B2D8E" opacity="0.3"/>
  <rect x="366" y="296" width="4" height="4" fill="#7E22CE" opacity="0.5"/>
  <rect x="374" y="296" width="4" height="4" fill="#6B21A8" opacity="0.7"/>
  <rect x="382" y="296" width="4" height="4" fill="#5B2D8E" opacity="0.9"/>

  <!-- Username morado -->
  <text x="200" y="320" font-family="'Courier New', monospace" font-size="9" fill="#6B21A8" text-anchor="middle" letter-spacing="2">diego-febles-seoane</text>

</svg>
